<svg width="148" height="85" viewBox="0 0 148 85" fill="none" xmlns="http://www.w3.org/2000/svg">
<path fill-rule="evenodd" clip-rule="evenodd" d="M30.6732 56.4317C31.9209 55.1927 32.5691 53.6066 32.8998 51.3636C33.2305 49.1206 33.2305 46.2395 33.2268 42.4851C33.223 38.7306 33.2268 35.8682 32.881 33.6065C32.5353 31.3449 31.8965 29.7756 30.645 28.5366C29.3974 27.2975 27.8021 26.6519 25.5417 26.3253C23.2813 25.9988 20.382 25.9969 16.6015 26.0006C12.821 26.0044 9.94048 26.0006 7.66127 26.3421C5.38206 26.6836 3.80371 27.3218 2.55606 28.5646C1.30841 29.8073 0.656409 31.3934 0.327586 33.6364C-0.00123691 35.8794 -0.00311406 38.7605 0.000643913 42.5187C0.00440189 46.2768 0.000637483 49.1374 0.346371 51.4009C0.692105 53.6644 1.33097 55.2281 2.58237 56.469C3.83378 57.7099 5.43092 58.3481 7.69134 58.6747C9.95176 59.0012 12.851 59.0031 16.6334 58.9994C20.4158 58.9956 23.2982 58.9994 25.5755 58.656C27.8529 58.3127 29.4275 57.6745 30.6732 56.4317Z" fill="url(#paint0_linear_208_294)"/>
<path d="M56.8665 36.4391C58.1066 37.9605 58.7179 39.9653 58.7004 42.4533C58.6816 44.9065 58.0215 46.8969 56.7199 48.4246C55.4184 49.9522 53.7461 50.7048 51.7031 50.6824C49.5172 50.665 47.8029 49.8869 46.5603 48.3481L46.5133 55.702L42.6426 55.6722L42.8098 34.3212L46.2502 34.3473L46.4381 36.7507C47.0391 35.9187 47.8401 35.249 48.7681 34.8026C49.7243 34.343 50.7762 34.1135 51.8383 34.1327C53.9491 34.1489 55.6251 34.9177 56.8665 36.4391ZM53.6215 46.1294C54.3731 45.2262 54.7583 43.9921 54.7771 42.4272C54.7959 40.8622 54.4295 39.6232 53.6779 38.7101C52.9263 37.7957 51.9085 37.3342 50.6245 37.3255C49.3405 37.3168 48.3253 37.7621 47.5787 38.6615C46.8346 39.5647 46.4588 40.7988 46.4513 42.3637C46.4438 43.9287 46.8014 45.1684 47.5242 46.0827C48.2507 46.9958 49.2591 47.4567 50.5493 47.4654C51.8396 47.4741 52.8636 47.0288 53.6215 46.1294V46.1294Z" fill="black"/>
<path d="M63.3085 48.4992C61.7978 46.9753 61.0519 44.9675 61.0707 42.4757C61.0894 39.984 61.8755 37.9861 63.4288 36.4821C64.9808 34.9818 66.9939 34.2416 69.4679 34.2615C72.012 34.2802 74.0307 35.0427 75.5238 36.5492C77.017 38.0557 77.7536 40.0723 77.7335 42.5989C77.7147 45.0869 76.9287 47.0823 75.3754 48.5851C73.8221 50.0878 71.8097 50.8287 69.3382 50.8075C66.8291 50.7926 64.8192 50.0232 63.3085 48.4992ZM72.5719 46.2749C73.3498 45.3718 73.745 44.1377 73.7576 42.5728C73.7701 41.0078 73.3943 39.7687 72.6302 38.8556C71.8648 37.9413 70.8 37.4791 69.4359 37.4692C68.0718 37.4592 67.002 37.9046 66.2266 38.8053C65.4487 39.7084 65.0535 40.9419 65.041 42.5056C65.0284 44.0693 65.4042 45.309 66.1684 46.2246C66.9312 47.1389 67.996 47.6011 69.3626 47.611C70.7293 47.621 71.799 47.1756 72.5719 46.2749Z" fill="black"/>
<path d="M94.5102 38.5158C95.808 39.8432 96.4487 41.5382 96.4324 43.6008C96.4162 45.8089 95.6583 47.5915 94.1589 48.9488C92.6594 50.306 90.7285 50.9765 88.3659 50.9603C85.8606 50.9392 83.8871 50.0964 82.4453 48.4319C81.0035 46.7674 80.2957 44.4933 80.322 41.6097C80.3445 38.5843 80.954 36.2312 82.1503 34.5505C83.3465 32.8699 85.1854 31.772 87.667 31.257L91.4888 30.4322C91.7488 30.4025 91.9912 30.2873 92.1778 30.1051C92.3643 29.9229 92.4842 29.6841 92.5185 29.4264L92.6857 28.8405L96.3347 29.5086L96.2765 30.0963C96.1249 31.1289 95.7604 31.9375 95.1829 32.5222C94.6054 33.1069 93.7781 33.5367 92.7008 33.8116L87.9075 34.7446C86.4719 35.0183 85.4203 35.4997 84.7527 36.1889C84.085 36.8781 83.7092 37.8627 83.6253 39.1428C84.2096 38.2813 85.0234 37.5978 85.9759 37.1686C87.0693 36.6936 88.2553 36.4654 89.4482 36.5005C91.5176 36.518 93.205 37.1897 94.5102 38.5158ZM91.3028 46.6312C92.0243 45.8723 92.3907 44.8522 92.402 43.5709C92.4108 42.256 92.0694 41.2129 91.378 40.4416C90.6865 39.6703 89.7126 39.2797 88.4561 39.2697C87.2035 39.2598 86.2064 39.6261 85.4648 40.3688C84.7232 41.1115 84.3474 42.1403 84.3374 43.4552C84.3261 44.7372 84.6963 45.7709 85.4404 46.5603C86.1844 47.3496 87.169 47.747 88.3885 47.7564C89.608 47.7657 90.5794 47.3925 91.3028 46.6312Z" fill="black"/>
<path d="M100.769 48.7866C99.2554 47.2614 98.5094 45.2542 98.5307 42.7649C98.552 40.2756 99.3381 38.2796 100.889 36.7768C102.441 35.2766 104.453 34.5358 106.926 34.5544C109.47 34.5731 111.489 35.3357 112.984 36.8422C114.478 38.3487 115.215 40.3652 115.194 42.8918C115.175 45.3798 114.389 47.3759 112.835 48.8799C111.282 50.3839 109.27 51.1247 106.798 51.1023C104.29 51.0811 102.281 50.3092 100.769 48.7866ZM110.032 46.5623C110.807 45.6616 111.202 44.4282 111.216 42.8619C111.23 41.2957 110.854 40.0561 110.088 39.143C109.323 38.2286 108.258 37.7665 106.894 37.7565C105.53 37.7466 104.463 38.1925 103.692 39.0944C102.914 39.9964 102.52 41.2298 102.509 42.7948C102.497 44.3597 102.873 45.5994 103.636 46.5138C104.399 47.4269 105.464 47.8884 106.83 47.8983C108.197 47.9083 109.264 47.4617 110.032 46.5585V46.5623Z" fill="black"/>
<path d="M131.357 38.4789L125.72 38.436L125.623 50.9794L121.754 50.9495L121.85 38.4061L116.154 38.3613L116.181 34.8924L131.4 35.0081L131.357 38.4789Z" fill="black"/>
<path d="M148 47.8426L147.975 51.151C147.513 51.2274 147.044 51.2599 146.575 51.2481C145.573 51.2406 144.813 51.0391 144.296 50.6435C143.779 50.2479 143.452 49.6259 143.317 48.7775C142.685 49.596 141.857 50.2445 140.908 50.664C139.885 51.129 138.77 51.3598 137.644 51.3395C136.069 51.3258 134.8 50.8904 133.838 50.0333C132.876 49.1762 132.401 48.0335 132.413 46.6054C132.428 44.7892 133.083 43.5308 134.379 42.8305C135.674 42.1301 137.344 41.6623 139.388 41.4272C140.608 41.2941 141.485 41.123 142.019 40.9141C142.552 40.7051 142.824 40.3511 142.832 39.8523C142.832 39.2838 142.558 38.8278 142.009 38.4845C141.461 38.1411 140.701 37.9664 139.73 37.9601C138.01 37.9477 136.482 38.5946 135.145 39.9008L132.853 37.475C134.802 35.6736 137.175 34.7842 139.971 34.8066C142.011 34.824 143.602 35.3079 144.743 36.2583C145.884 37.2088 146.448 38.5212 146.434 40.1956L146.382 46.8667C146.382 47.5086 146.702 47.8314 147.342 47.8351L148 47.8426ZM141.446 47.3052C142.276 46.6371 142.695 45.8397 142.701 44.9129L142.714 43.2578C142.247 43.5066 141.278 43.7485 139.807 43.9837C138.586 44.1864 137.679 44.4284 137.086 44.7095C136.493 44.9913 136.192 45.5213 136.186 46.305C136.172 46.5757 136.22 46.8461 136.325 47.0964C136.43 47.3466 136.59 47.5703 136.793 47.7512C137.203 48.1094 137.765 48.2923 138.484 48.296C139.559 48.3285 140.61 47.9769 141.446 47.3052V47.3052Z" fill="black"/>
<path d="M16.4329 37.0421C15.9415 37.0314 15.453 37.1198 14.997 37.3019C14.5409 37.4841 14.1269 37.7563 13.7798 38.102C13.0583 38.8073 12.5923 39.782 12.3818 41.026L13.5243 40.9999C13.7044 40.0281 14.1906 39.1381 14.9128 38.4584C15.637 37.8077 16.586 37.4595 17.5622 37.4862C17.837 37.4857 18.1113 37.5107 18.3814 37.5608C17.7937 37.2101 17.1185 37.0303 16.4329 37.0421V37.0421Z" fill="url(#paint1_linear_208_294)"/>
<path d="M12.2998 43.6514C12.4576 45.0646 12.8961 46.1525 13.6151 46.915C14.3341 47.6776 15.2736 48.0589 16.4336 48.0589C17.1191 48.072 17.7945 47.8929 18.3821 47.542C18.1121 47.5929 17.8377 47.6179 17.5629 47.6167C16.4104 47.6167 15.4753 47.2659 14.7575 46.5642C14.0379 45.8626 13.6001 44.8624 13.4422 43.685H13.6658L12.2998 43.6514Z" fill="url(#paint2_linear_208_294)"/>
<path d="M20.5206 35.4947C21.648 36.3008 22.4346 37.4522 22.8806 38.9487L20.126 40.0086L21.2534 40.212L24.0023 39.238C23.6139 37.9403 22.7811 36.8183 21.648 36.0657C21.277 35.8216 20.8808 35.6177 20.4661 35.4574C20.4848 35.469 20.503 35.4814 20.5206 35.4947V35.4947Z" fill="url(#paint3_linear_208_294)"/>
<path d="M20.126 45.0934L22.8787 46.1533C22.4315 47.6237 21.6442 48.7676 20.5168 49.5849L20.4191 49.654C20.8479 49.4886 21.2569 49.2764 21.6386 49.0214C22.7643 48.2674 23.5959 47.1531 23.9948 45.8641L21.2477 44.89L20.126 45.0934Z" fill="url(#paint4_linear_208_294)"/>
<path d="M17.9648 43.588V43.7746L19.0922 43.5638V41.1473L17.9667 40.9009L17.9648 43.588Z" fill="url(#paint5_linear_208_294)"/>
<path d="M18.7279 47.3049C19.3705 46.7949 19.8365 46.0603 20.1259 45.1011L22.8786 46.161C22.4314 47.6315 21.6441 48.7753 20.5167 49.5927C19.3893 50.41 18.0264 50.8199 16.428 50.8224C14.2497 50.8224 12.506 50.076 11.1969 48.5831C9.8879 47.0903 9.2334 45.0843 9.2334 42.5652C9.2334 40.1083 9.89542 38.1179 11.2195 36.594C12.5435 35.07 14.281 34.3075 16.4318 34.3062C18.0302 34.3062 19.3931 34.7093 20.5205 35.5154C21.6479 36.3215 22.4345 37.4729 22.8805 38.9694L20.1259 40.0293C19.839 39.0677 19.3743 38.3331 18.7317 37.8255C18.0773 37.3126 17.2634 37.0421 16.4299 37.0605C15.9385 37.0497 15.45 37.1382 14.994 37.3203C14.5379 37.5025 14.1239 37.7747 13.7768 38.1204C13.0553 38.8257 12.5893 39.8004 12.3788 41.0444L17.9632 40.9231V43.7949L12.2999 43.6718C12.4577 45.085 12.8962 46.1729 13.6152 46.9354C14.3342 47.698 15.2737 48.0793 16.4337 48.0793C17.2658 48.0938 18.077 47.8199 18.7279 47.3049V47.3049Z" fill="white"/>
<defs>
<linearGradient id="paint0_linear_208_294" x1="33.4796" y1="51.9656" x2="-0.162049" y2="32.8031" gradientUnits="userSpaceOnUse">
<stop offset="0.33" stop-color="#17547B"/>
<stop offset="0.87" stop-color="#17997F"/>
</linearGradient>
<linearGradient id="paint1_linear_208_294" x1="12.3818" y1="39.0331" x2="18.3814" y2="39.0331" gradientUnits="userSpaceOnUse">
<stop stop-color="#17547B"/>
<stop offset="0.03" stop-color="#175E7C"/>
<stop offset="0.1" stop-color="#17747D"/>
<stop offset="0.19" stop-color="#17857E"/>
<stop offset="0.3" stop-color="#17907E"/>
<stop offset="0.45" stop-color="#17977F"/>
<stop offset="0.87" stop-color="#17997F"/>
</linearGradient>
<linearGradient id="paint2_linear_208_294" x1="12.2998" y1="45.8551" x2="18.3765" y2="45.8551" gradientUnits="userSpaceOnUse">
<stop stop-color="#17547B"/>
<stop offset="0.03" stop-color="#175E7C"/>
<stop offset="0.1" stop-color="#17747D"/>
<stop offset="0.19" stop-color="#17857E"/>
<stop offset="0.3" stop-color="#17907E"/>
<stop offset="0.45" stop-color="#17977F"/>
<stop offset="0.87" stop-color="#17997F"/>
</linearGradient>
<linearGradient id="paint3_linear_208_294" x1="20.126" y1="37.8328" x2="23.9967" y2="37.8328" gradientUnits="userSpaceOnUse">
<stop stop-color="#17547B"/>
<stop offset="0.03" stop-color="#175E7C"/>
<stop offset="0.1" stop-color="#17747D"/>
<stop offset="0.19" stop-color="#17857E"/>
<stop offset="0.3" stop-color="#17907E"/>
<stop offset="0.45" stop-color="#17977F"/>
<stop offset="0.87" stop-color="#17997F"/>
</linearGradient>
<linearGradient id="paint4_linear_208_294" x1="20.126" y1="47.2711" x2="23.9948" y2="47.2711" gradientUnits="userSpaceOnUse">
<stop stop-color="#17547B"/>
<stop offset="0.03" stop-color="#175E7C"/>
<stop offset="0.1" stop-color="#17747D"/>
<stop offset="0.19" stop-color="#17857E"/>
<stop offset="0.3" stop-color="#17907E"/>
<stop offset="0.45" stop-color="#17977F"/>
<stop offset="0.87" stop-color="#17997F"/>
</linearGradient>
<linearGradient id="paint5_linear_208_294" x1="17.9648" y1="42.3378" x2="19.0922" y2="42.3378" gradientUnits="userSpaceOnUse">
<stop stop-color="#17547B"/>
<stop offset="0.03" stop-color="#175E7C"/>
<stop offset="0.1" stop-color="#17747D"/>
<stop offset="0.19" stop-color="#17857E"/>
<stop offset="0.3" stop-color="#17907E"/>
<stop offset="0.45" stop-color="#17977F"/>
<stop offset="0.87" stop-color="#17997F"/>
</linearGradient>
</defs>
</svg>
